<svg id="visual" viewBox="0 0 960 50" width="960" height="50" xmlns="http://www.w3.org/2000/svg" xmlns:xlink="http://www.w3.org/1999/xlink" version="1.1"><path d="M0 20L13.3 19.5C26.7 19 53.3 18 80 18C106.7 18 133.3 19 160 19.7C186.7 20.3 213.3 20.7 240 22.3C266.7 24 293.3 27 320 28.8C346.7 30.7 373.3 31.3 400 29.2C426.7 27 453.3 22 480 19.3C506.7 16.7 533.3 16.3 560 16C586.7 15.7 613.3 15.3 640 16.3C666.7 17.3 693.3 19.7 720 20.5C746.7 21.3 773.3 20.7 800 20.8C826.7 21 853.3 22 880 22.5C906.7 23 933.3 23 946.7 23L960 23L960 51L946.7 51C933.3 51 906.7 51 880 51C853.3 51 826.7 51 800 51C773.3 51 746.7 51 720 51C693.3 51 666.7 51 640 51C613.3 51 586.7 51 560 51C533.3 51 506.7 51 480 51C453.3 51 426.7 51 400 51C373.3 51 346.7 51 320 51C293.3 51 266.7 51 240 51C213.3 51 186.7 51 160 51C133.3 51 106.7 51 80 51C53.3 51 26.7 51 13.3 51L0 51Z" fill="#34495e" stroke-linecap="round" stroke-linejoin="miter"></path></svg>